{"scene":0,"asset":{"generator":"ImageToStl.com","version":"2.0"},"scenes":[{"name":"Scene","nodes":[0]}],"nodes":[{"name":"Node0","children":[1]},{"name":"Node1","mesh":0}],"materials":[{"name":"Material.009","pbrMetallicRoughness":{"baseColorFactor":[0.006217,0.378047,0.682774,1.0],"metallicFactor":0.5,"roughnessFactor":0.75},"emissiveFactor":[0.0,0.0,0.0],"doubleSided":true},{"name":"Material.008","pbrMetallicRoughness":{"baseColorFactor":[0.040577,0.816276,0.116483,1.0],"metallicFactor":0.5,"roughnessFactor":0.75},"emissiveFactor":[0.0,0.0,0.0],"doubleSided":true},{"name":"Material.010","pbrMetallicRoughness":{"baseColorFactor":[0.056834,0.242277,0.100356,1.0],"metallicFactor":0.5,"roughnessFactor":0.75},"emissiveFactor":[0.0,0.0,0.0],"doubleSided":true},{"name":"Material.001","pbrMetallicRoughness":{"baseColorFactor":[0.8,0.002076,0.008128,1.0],"metallicFactor":0.5,"roughnessFactor":0.75},"emissiveFactor":[0.0,0.0,0.0],"doubleSided":true},{"name":"Material.005","pbrMetallicRoughness":{"baseColorFactor":[0.643444,0.759128,0.80551,1.0],"metallicFactor":0.5,"roughnessFactor":0.75},"emissiveFactor":[0.0,0.0,0.0],"doubleSided":true}],"meshes":[{"name":"Mesh0","primitives":[{"indices":3,"material":0,"attributes":{"POSITION":0,"NORMAL":1,"TEXCOORD_0":2}},{"indices":4,"material":1,"attributes":{"POSITION":0,"NORMAL":1,"TEXCOORD_0":2}},{"indices":5,"material":2,"attributes":{"POSITION":0,"NORMAL":1,"TEXCOORD_0":2}},{"indices":6,"material":4,"attributes":{"POSITION":0,"NORMAL":1,"TEXCOORD_0":2}}]}],"accessors":[{"bufferView":0,"componentType":5126,"count":2033,"type":"VEC3","min":[-1.044879,-1.0592865,-1.06731],"max":[0.99947214,1.0546082,1.0394732]},{"bufferView":1,"componentType":5126,"count":2033,"type":"VEC3"},{"bufferView":2,"componentType":5126,"count":2033,"type":"VEC2"},{"bufferView":3,"componentType":5123,"count":11052,"type":"SCALAR"},{"bufferView":4,"componentType":5123,"count":7695,"type":"SCALAR"},{"bufferView":5,"componentType":5123,"count":16263,"type":"SCALAR"},{"bufferView":6,"componentType":5123,"count":1494,"type":"SCALAR"}],"bufferViews":[{"target":34962,"buffer":0,"byteLength":24396,"byteOffset":0},{"target":34962,"buffer":0,"byteLength":24396,"byteOffset":24396},{"target":34962,"buffer":0,"byteLength":16264,"byteOffset":48792},{"target":34963,"buffer":0,"byteLength":22104,"byteOffset":65056},{"target":34963,"buffer":0,"byteLength":15390,"byteOffset":87160},{"target":34963,"buffer":0,"byteLength":32526,"byteOffset":102552},{"target":34963,"buffer":0,"byteLength":2988,"byteOffset":135080}],"buffers":[{"byteLength":138068,"uri":"data:application/octet-stream;base64,"}]}