<?xml version="1.0" encoding="UTF-8"?>
<svg version="1.1" xmlns="http://www.w3.org/2000/svg" width="2000" height="2129">
<path d="M0 0 C4.39283114 0.00249 8.78564193 -0.00657494 13.17846537 -0.01403749 C21.76268599 -0.02672466 30.34687524 -0.02858563 38.93110366 -0.02623723 C45.91702763 -0.02444691 52.90294215 -0.02621892 59.88886499 -0.03046167 C60.88695296 -0.03105686 61.88504092 -0.03165205 62.91337397 -0.03226527 C64.94167981 -0.03347716 66.96998564 -0.03469129 68.99829148 -0.03590765 C87.97992228 -0.04676048 106.96153528 -0.04463161 125.94316708 -0.0385228 C143.25935581 -0.03335758 160.57548823 -0.04460273 177.89166583 -0.06362102 C195.72395257 -0.08305412 213.55621273 -0.09124574 231.38851011 -0.08749777 C241.37904695 -0.08559376 251.3695359 -0.08799452 261.36006403 -0.10221231 C269.86685787 -0.11419722 278.37357434 -0.11545221 286.88036938 -0.10342214 C291.20948762 -0.09758244 295.53846488 -0.0962955 299.86757326 -0.10842454 C361.64512507 -0.26941977 413.97485806 16.08477407 458.69853067 60.02610838 C470.18222404 71.51946409 479.52812247 84.15992564 487.57353067 98.27610838 C487.93011759 98.89501952 488.2867045 99.51393065 488.65409708 100.15159667 C500.20946394 120.38225413 507.7159933 142.33802895 511.32353067 165.33860838 C511.4393046 166.06829833 511.55507853 166.79798827 511.67436075 167.54979002 C513.82571417 182.70415252 513.72122538 198.13848793 513.70724344 213.41055357 C513.70911637 215.37880359 513.71141897 217.34705324 513.71410877 219.31530231 C513.72017315 224.67282823 513.72009958 230.03033842 513.71891439 235.38786697 C513.71870903 241.18544012 513.72424178 246.98300838 513.72897196 252.78057921 C513.73724819 264.11703972 513.74002537 275.45349504 513.74058434 286.78995832 C513.74106068 296.00612502 513.74312129 305.22229002 513.74628496 314.43845618 C513.74717953 317.09874842 513.74807114 319.75904067 513.74895984 322.41933292 C513.74918089 323.08081177 513.74940194 323.74229062 513.74962968 324.42381428 C513.75577528 343.00433289 513.75973109 361.58485092 513.7592864 380.16537058 C513.75927082 380.8645455 513.75925525 381.56372042 513.7592392 382.28408246 C513.7591561 385.8272056 513.75905706 389.37032874 513.75895449 392.91345187 C513.75892457 393.96883568 513.75892457 393.96883568 513.75889405 395.04554037 C513.75885361 396.46836296 513.75881181 397.89118555 513.75876866 399.31400814 C513.75815554 421.46406048 513.76567274 443.61409753 513.77934122 465.76414549 C513.7947156 490.68848544 513.80330674 515.61281535 513.802378 540.53716034 C513.80204633 553.72047163 513.80478052 566.90376565 513.81555605 580.08707297 C513.82466719 591.30527161 513.82683102 602.52344515 513.82004663 613.74164589 C513.81678533 619.46097442 513.81671083 625.18025477 513.82539988 630.89957869 C513.83328228 636.14192295 513.8318157 641.38418098 513.82311574 646.62652317 C513.82158466 648.51587652 513.82338202 650.40523635 513.82897582 652.29458203 C513.89430323 675.93795111 511.02107089 696.81409318 494.11649942 714.82298338 C480.07474545 728.36863852 464.03985204 734.10311839 444.80937052 734.32591307 C426.32523529 733.91416776 409.82758752 725.65502437 397.00712442 712.67845213 C384.8447342 698.70507994 379.44512774 681.92777112 379.45048285 663.59187376 C379.44875208 662.49155917 379.44875208 662.49155917 379.44698635 661.36901599 C379.44434876 658.92184514 379.44881815 656.47474066 379.45327616 654.02757323 C379.45283987 652.25112927 379.45196391 650.47468538 379.45068699 648.69824183 C379.44845332 643.82503322 379.45244791 638.95184663 379.45746505 634.07864082 C379.46178554 628.82038193 379.46032199 623.56212428 379.45956278 618.30386412 C379.45903856 609.1963121 379.46217473 600.08876725 379.46780062 590.98121703 C379.4759294 577.81324505 379.47853225 564.64527653 379.47978861 551.47730231 C379.48197696 530.11287242 379.48863117 508.74844636 379.49809122 487.38401854 C379.50727094 466.63108905 379.51434904 445.87816059 379.51859903 425.12522948 C379.51886176 423.84591016 379.51912448 422.56659085 379.51939517 421.24850428 C379.52070021 414.83050279 379.52196391 408.4125013 379.52320707 401.9944998 C379.53357292 348.75503322 379.55146067 295.5155713 379.57353067 242.27610838 C368.68353067 242.27610838 357.79353067 242.27610838 346.57353067 242.27610838 C346.57466983 244.79264841 346.575809 247.30918844 346.57698268 249.90198725 C346.59226384 283.75464002 346.60690983 317.60729305 346.6211381 351.45994627 C346.62143749 352.17213782 346.62173688 352.88432937 346.62204535 353.61810247 C346.65410875 429.93398878 346.68177766 506.24987517 346.70056009 582.56576598 C346.70097844 584.26105516 346.7013968 585.95634435 346.70181516 587.65163354 C346.71058332 623.23663925 346.71873346 658.82164509 346.72616971 694.40665111 C346.72990588 712.28232755 346.7337608 730.15800397 346.737728 748.03368036 C346.73832574 750.73014922 346.7389201 753.42661808 346.73951431 756.12308693 C346.74869365 797.64213398 346.76041892 839.16117838 346.77952433 880.68022215 C346.77993502 881.57283622 346.78034572 882.46545028 346.78076886 883.38511325 C346.78740593 897.7765833 346.79425677 912.16805324 346.801136 926.55952318 C346.82094838 968.01425503 346.83917852 1009.46898484 346.84695005 1050.92372096 C346.84711066 1051.77631084 346.84727126 1052.62890073 346.84743674 1053.50732667 C346.85093413 1072.22431686 346.85361865 1090.94130707 346.85553362 1109.65829748 C346.85631848 1117.18953086 346.85722034 1124.72076423 346.8581624 1132.25199759 C346.85826268 1133.0762552 346.85836297 1133.90051281 346.85846629 1134.74974792 C346.86175488 1161.3018072 346.87456557 1187.85385139 346.8923773 1214.40590457 C346.91027806 1241.15571286 346.91882662 1267.90550652 346.91440264 1294.65532094 C346.91379341 1298.3532048 346.91329126 1302.05108866 346.91285372 1305.74897254 C346.91271926 1306.83629331 346.91271926 1306.83629331 346.91258208 1307.94558017 C346.91144082 1319.41636411 346.92038742 1330.88711707 346.93356026 1342.35789257 C346.94631061 1353.64178424 346.94808957 1364.92563628 346.93902611 1376.20953527 C346.9344913 1382.24396478 346.93471396 1388.27829086 346.94818022 1394.31270934 C346.9603454 1399.80581657 346.95861581 1405.29873994 346.9459506 1410.79184444 C346.9438134 1412.76349003 346.94667293 1414.73514925 346.95523641 1416.7067774 C347.06705933 1444.20280547 340.09820179 1468.48941032 320.50321817 1488.46360838 C302.62529405 1505.94531256 279.57180302 1514.53327462 254.67314005 1514.59520018 C241.28450464 1514.40817436 228.59914931 1511.1506922 216.57353067 1505.27610838 C215.67634317 1504.85845213 214.77915567 1504.44079588 213.85478067 1504.01048338 C192.8925294 1493.52935775 178.36276586 1474.01294282 170.57353067 1452.27610838 C167.31542418 1441.01273242 166.42228909 1430.02272849 166.45048285 1418.36145747 C166.449329 1417.18271828 166.44817516 1416.00397909 166.44698635 1414.78952053 C166.44479975 1411.52559349 166.44708076 1408.26170525 166.45126448 1404.99778131 C166.45470988 1401.44399793 166.45232575 1397.89021761 166.45068699 1394.33643359 C166.44861609 1388.11077684 166.4502522 1381.88512965 166.4543252 1375.65947402 C166.46036474 1366.40217811 166.46066058 1357.14488823 166.45978321 1347.88759071 C166.45846977 1332.31471174 166.46180896 1316.741837 166.46780062 1301.16895926 C166.47371782 1285.75006078 166.4775666 1270.33116407 166.47865343 1254.91226447 C166.47872217 1253.95353115 166.47879091 1252.99479784 166.47886173 1252.007012 C166.47920007 1247.13808155 166.47950145 1242.26915109 166.47978861 1237.40022064 C166.48188897 1202.91443137 166.48862618 1168.4286444 166.49809122 1133.94285643 C166.50727571 1100.44057791 166.5143593 1066.93830002 166.51859903 1033.43602049 C166.51873056 1032.40331754 166.51886209 1031.37061458 166.5189976 1030.3066176 C166.52031612 1019.93578143 166.52159193 1009.56494526 166.52283646 999.19410909 C166.52537266 978.06755727 166.52819392 956.94100548 166.53118753 935.81445372 C166.53132482 934.843091 166.53146211 933.87172827 166.53160356 932.87093031 C166.54080409 868.00598869 166.55672612 803.14104842 166.57353067 738.27610838 C155.02353067 738.27610838 143.47353067 738.27610838 131.57353067 738.27610838 C131.57629605 743.60632486 131.57629605 743.60632486 131.5791173 749.04422247 C131.6111509 811.23039207 131.64062605 873.41656247 131.65821695 935.60273802 C131.65863112 937.06314639 131.65863112 937.06314639 131.65905366 938.55305796 C131.66503957 959.71248014 131.67057992 980.8719024 131.67566133 1002.03132481 C131.67815599 1012.40800399 131.6807491 1022.78468315 131.68339396 1033.16136229 C131.68365547 1034.19396281 131.68391699 1035.22656332 131.68418643 1036.29045477 C131.69270808 1069.75585359 131.70772992 1103.22124566 131.72612512 1136.68664039 C131.7449953 1171.07865314 131.75730273 1205.47066215 131.76136065 1239.86267999 C131.76193696 1244.72107942 131.76258823 1249.57947884 131.76328516 1254.43787825 C131.76348743 1255.87217257 131.76348743 1255.87217257 131.76369378 1257.33544253 C131.76605658 1272.72328103 131.775331 1288.11110796 131.78719474 1303.49894175 C131.79897613 1318.97149175 131.8034649 1334.4440303 131.80053343 1349.91658463 C131.79901309 1359.10740356 131.80306052 1368.29818052 131.81512576 1377.48899187 C131.82263995 1383.63320037 131.82284785 1389.77738147 131.8171943 1395.92159188 C131.81418261 1399.41942551 131.81427212 1402.91717993 131.82329704 1406.41500498 C131.89395467 1439.58984552 127.22674358 1466.40380732 103.25712442 1490.61595213 C85.06688581 1507.56964501 61.41095778 1514.9211883 36.94853067 1514.54954588 C13.17548995 1513.68956124 -9.18721143 1502.37006407 -25.42646933 1485.27610838 C-44.83015923 1463.24037221 -48.75488651 1437.20089945 -48.67256498 1408.89257205 C-48.67404668 1406.85074577 -48.67640642 1404.80891998 -48.67955798 1402.7670956 C-48.68567021 1397.1677964 -48.67936736 1391.56857034 -48.67100171 1385.96927662 C-48.66411272 1379.87349208 -48.66887883 1373.7777147 -48.67215669 1367.68192869 C-48.67629906 1357.0024135 -48.67309103 1346.32292315 -48.66488028 1335.64341223 C-48.65611285 1324.18926566 -48.6517364 1312.73512978 -48.65268469 1301.28097975 C-48.65274207 1300.55654959 -48.65279946 1299.83211943 -48.65285858 1299.08573684 C-48.65317135 1295.39162899 -48.65355524 1291.69752115 -48.65396425 1288.00341331 C-48.65677663 1261.28980376 -48.64992667 1234.57620373 -48.63792944 1207.86259711 C-48.62607906 1181.41270013 -48.61837817 1154.96280724 -48.61622381 1128.51290762 C-48.61615499 1127.69106202 -48.61608616 1126.86921642 -48.61601526 1126.02246641 C-48.61538884 1118.51602251 -48.61481346 1111.0095786 -48.61429931 1103.5031347 C-48.61302062 1084.84409248 -48.61110204 1066.18505036 -48.60874891 1047.52600825 C-48.60858896 1046.25155995 -48.60858896 1046.25155995 -48.60842578 1044.95136523 C-48.60318446 1003.63537639 -48.59057004 962.31939023 -48.57734823 921.00340331 C-48.57276485 906.66827963 -48.5682141 892.33315594 -48.56379843 877.99803221 C-48.56352453 877.1089499 -48.56325063 876.21986759 -48.56296843 875.3038434 C-48.55027704 833.96201005 -48.54282805 792.62017624 -48.53672884 751.27834145 C-48.53633271 748.59394486 -48.53593432 745.90954827 -48.53553548 743.22515168 C-48.53289588 725.43531028 -48.53034659 707.64546886 -48.52785776 689.85562744 C-48.52290493 654.45915328 -48.51742158 619.0626792 -48.51157367 583.66620518 C-48.51129519 581.98058505 -48.51101708 580.29496493 -48.51073934 578.6093448 C-48.49823538 502.73988251 -48.47956017 426.87042218 -48.45820761 351.0009619 C-48.45800774 350.29064539 -48.45780787 349.58032888 -48.45760194 348.84848762 C-48.4476013 313.3243611 -48.43723505 277.80023468 -48.42646933 242.27610838 C-59.31646933 242.27610838 -70.20646933 242.27610838 -81.42646933 242.27610838 C-81.41647657 250.30675375 -81.41647657 250.30675375 -81.40628195 258.49963439 C-81.34656119 307.61591645 -81.30178663 356.73219422 -81.27327334 405.84850467 C-81.2695213 412.28832121 -81.26563833 418.72813767 -81.2616744 425.16795409 C-81.26088747 426.44998378 -81.26010054 427.73201348 -81.25928976 429.05289256 C-81.24624253 449.80032227 -81.22259242 470.54772699 -81.19501094 491.29514188 C-81.16693779 512.59029644 -81.15028902 533.88543793 -81.14420384 555.18061024 C-81.14009137 568.31657127 -81.12711112 581.45246167 -81.10271993 594.58840095 C-81.08683919 603.6011411 -81.08207427 612.61384483 -81.08596519 621.62659795 C-81.08788309 626.82331343 -81.0849818 632.01990565 -81.0688529 637.21659911 C-81.05417033 641.98228821 -81.05357081 646.74777206 -81.06377264 651.51347094 C-81.06503207 653.22974677 -81.0612977 654.94603581 -81.05181978 656.66228593 C-80.95033511 676.18797587 -84.08878583 693.4785093 -96.42646933 709.27610838 C-96.93693808 709.9631787 -97.44740683 710.65024901 -97.97334433 711.35813963 C-108.71402042 724.83715642 -125.54236126 732.03164827 -142.31465292 734.08763182 C-160.37639431 735.69961614 -177.03542443 730.4784809 -191.11006308 719.10813963 C-205.32653652 706.83507712 -213.6606426 690.45299089 -215.23494077 671.71417582 C-215.65471466 664.17894997 -215.56317308 656.63082548 -215.55345297 649.08628905 C-215.55460628 647.13518093 -215.55619522 645.18407304 -215.55818021 643.23296559 C-215.56234492 637.89014821 -215.56029573 632.54734875 -215.55719399 627.20453131 C-215.55492835 621.43470829 -215.5584254 615.66488832 -215.56117392 609.8950659 C-215.56561879 598.59707649 -215.56466064 587.29909373 -215.56176127 576.00110406 C-215.55950132 566.81340862 -215.5591973 557.62571503 -215.56028509 548.43801939 C-215.56043832 547.12947429 -215.56059156 545.82092919 -215.56074943 544.4727312 C-215.56106917 541.81419897 -215.56139338 539.15566674 -215.56172203 536.49713451 C-215.56459241 512.27980421 -215.56162029 488.06247727 -215.55637943 463.84514754 C-215.55163844 441.77004922 -215.55205487 419.69495666 -215.55684042 397.61985838 C-215.56220467 372.79258363 -215.56429423 347.9653121 -215.56122816 323.13803685 C-215.56090962 320.4869324 -215.56059525 317.83582795 -215.56028509 315.1847235 C-215.56013082 313.88045363 -215.55997654 312.57618375 -215.55981759 311.23239055 C-215.55895617 302.06546925 -215.56040733 292.89855 -215.56276464 283.73162901 C-215.56557799 272.54558619 -215.56479227 261.35955037 -215.5594839 250.17350835 C-215.55686691 244.47197395 -215.55580762 238.77045121 -215.55913305 233.06891692 C-215.56213776 227.83782467 -215.56043448 222.60675478 -215.5551555 217.37566453 C-215.55404893 215.49477967 -215.55458279 213.61389287 -215.55703129 211.73300928 C-215.57630937 195.67775479 -215.56921108 179.44763977 -212.80146933 163.58860838 C-212.62962118 162.59441893 -212.45777304 161.60022948 -212.28071737 160.57591307 C-203.26579923 111.33612851 -174.78439081 65.06959802 -133.42646933 36.27610838 C-128.22292653 32.7183883 -122.87800401 29.43829776 -117.42646933 26.27610838 C-116.35815878 25.6515576 -116.35815878 25.6515576 -115.2682662 25.01438963 C-79.08401958 4.1450371 -40.90265624 -0.04351671 0 0 Z " fill="#000000" transform="translate(852.4264693260193,480.7238916158676)"/>
<path d="M0 0 C3.58012345 3.11047043 7.0004451 6.36905434 10.41113281 9.66357422 C11.33667969 10.52595703 12.26222656 11.38833984 13.21582031 12.27685547 C40.18054702 38.0575786 55.31211256 75.75939449 56.69628906 112.78466797 C57.41863168 146.18980091 49.17011598 179.33369524 29.41113281 206.66357422 C28.81292725 207.50082031 28.81292725 207.50082031 28.20263672 208.35498047 C3.19558065 242.91805836 -32.68684485 263.87460486 -74.58886719 270.66357422 C-112.40481386 275.76243598 -152.52194427 267.14730522 -183.58886719 244.66357422 C-184.43408936 244.05739258 -184.43408936 244.05739258 -185.29638672 243.43896484 C-219.6938395 218.44729259 -240.81190557 182.49148388 -247.58886719 140.66357422 C-252.96414266 100.79759232 -242.81720182 59.85686481 -218.90356445 27.50366211 C-193.61092028 -5.49184862 -157.64560301 -26.51038825 -116.54321289 -32.51147461 C-75.52885487 -37.67113029 -31.89519764 -26.82764473 0 0 Z " fill="#000000" transform="translate(1097.5888671875,171.33642578125)"/>
</svg>
